<svg xmlns="http://www.w3.org/2000/svg" width="32" height="32" viewBox="0 0 32 32">
    <g fill="none" fill-rule="evenodd">
        <path d="M0 0L32 0 32 32 0 32z"/>
        <path fill="#B8A890" fill-rule="nonzero" d="M10.488 7.22c-.976-1.04-.976-2.733 0-3.773.975-1.04 2.562-1.04 3.537 0 .975 1.04.975 2.733 0 3.773-.988 1.053-2.563 1.053-3.537 0zM8.5 21.34v-12H6v12c0 3.68 2.8 6.667 6.25 6.667h7.5V25.34h-7.5c-2.075 0-3.75-1.787-3.75-4zM26 26.767l-6.337-6.76h-4.288V15.1c1.75 1.533 4.5 2.88 6.875 2.88V15.1c-2.075.027-4.512-1.16-5.837-2.72l-1.75-2.067c-.238-.28-.538-.506-.863-.666-.363-.187-.775-.307-1.2-.307h-.037c-1.55 0-2.813 1.347-2.813 3v7.667c0 2.213 1.675 4 3.75 4h6.337l4.375 4.666L26 26.767z"/>
    </g>
</svg>
