<svg xmlns="http://www.w3.org/2000/svg" width="32" height="32" viewBox="0 0 32 32">
    <g fill="none" fill-rule="evenodd">
        <path d="M0 0L32 0 32 32 0 32z"/>
        <path fill="#B8A890" fill-rule="nonzero" d="M29.333 5.333C30.8 5.333 32 6.533 32 8v18.667c0 1.466-1.2 2.666-2.667 2.666H2.667C1.2 29.333 0 28.133 0 26.667V8c0-1.467 1.2-2.667 2.667-2.667zm0 2.667H2.667v18.667h26.666V8zm-20.4 16.4c.534.533.534 1.333 0 1.867-.533.533-1.333.533-1.866 0-.534-.534-.534-1.334 0-1.867.533-.533 1.333-.533 1.866 0zM16.667 12l4.4 2.8 3.733-1.6c.667-.267 1.467 0 1.733.8.267.667 0 1.467-.666 1.733l-3.6 1.6-2.934 5.334-2.4 1.2 2-5.334L16 19.867 10.667 17.2 12.8 16l2.8 1.2c.267-.133 3.333-1.467 3.067-1.467l-4.134-2.666L16.667 12zm-7.734 7.067c.534.533.534 1.333 0 1.866-.533.534-1.333.534-1.866 0-.534-.533-.534-1.333 0-1.866.533-.534 1.333-.534 1.866 0zm0-5.334c.534.534.534 1.334 0 1.867-.533.533-1.333.533-1.866 0-.534-.533-.534-1.333 0-1.867.533-.533 1.333-.533 1.866 0zm0-5.333c.534.533.534 1.333 0 1.867-.533.533-1.333.533-1.866 0-.534-.534-.534-1.334 0-1.867.533-.533 1.333-.533 1.866 0z"/>
    </g>
</svg>
