<svg xmlns="http://www.w3.org/2000/svg" width="32" height="32" viewBox="0 0 32 32">
    <g fill="none" fill-rule="evenodd">
        <path d="M0 0L32 0 32 32 0 32z"/>
        <path fill="#B8A890" fill-rule="nonzero" d="M15.333 2.667C9.08 2.667 4 7.747 4 14s5.08 11.333 11.333 11.333H16v4C22.48 26.213 26.667 20 26.667 14c0-6.253-5.08-11.333-11.334-11.333zM16.667 22H14v-2.667h2.667V22zm0-4.667H14c0-4.333 4-4 4-6.666C18 9.2 16.8 8 15.333 8c-1.466 0-2.666 1.2-2.666 2.667H10c0-2.947 2.387-5.334 5.333-5.334 2.947 0 5.334 2.387 5.334 5.334 0 3.333-4 3.666-4 6.666z"/>
    </g>
</svg>
