<svg xmlns="http://www.w3.org/2000/svg" width="32" height="32" viewBox="0 0 32 32">
    <g fill="none" fill-rule="evenodd">
        <path d="M0.001 0.001L32.001 0.001 32.001 32.003 0.001 32.003z"/>
        <path fill="#B8A890" fill-rule="nonzero" d="M28 1.333c.736 0 1.333.598 1.333 1.334v26.666c0 .736-.597 1.334-1.333 1.334H4c-.736 0-1.333-.598-1.333-1.334V2.667c0-.736.597-1.334 1.333-1.334zM8 4H5.333v24H8V4zm18.667 0h-16v24h16V4zm-8 7.333c3.308 0 6 2.692 6 6 0 3.31-2.692 6-6 6s-6-2.69-6-6c0-3.308 2.692-6 6-6zM20.276 20h-3.22c.393 1.227 1.024 2 1.61 2 .587 0 1.218-.773 1.61-2zm-4.605 0h-.824c.341.487.769.905 1.265 1.23-.175-.371-.324-.782-.441-1.23zm6.816 0h-.824c-.119.45-.268.859-.442 1.23.496-.325.924-.743 1.266-1.23zm-7.074-4h-1.196c-.128.425-.217.867-.217 1.333 0 .467.09.91.217 1.334h1.196c-.05-.428-.081-.871-.081-1.334 0-.462.03-.905.081-1.333zm5.152 0h-3.797c-.059.421-.101.861-.101 1.333s.042.912.101 1.334h3.797c.059-.422.102-.862.102-1.334 0-.472-.043-.912-.102-1.333zm2.551 0H21.92c.05.428.081.87.081 1.333 0 .463-.03.906-.081 1.334h1.196c.128-.424.217-.867.217-1.334 0-.466-.089-.908-.217-1.333zm-4.45-3.333c-.586 0-1.217.773-1.609 2h3.22c-.393-1.227-1.024-2-1.61-2zm2.555.769c.174.373.323.783.442 1.23h.824c-.342-.485-.77-.903-1.266-1.23zm-5.109 0c-.496.327-.924.745-1.265 1.23h.824c.118-.449.268-.857.441-1.23z"/>
    </g>
</svg>
