<?xml version="1.0" encoding="UTF-8"?>
<svg width="64px" height="22px" viewBox="0 0 64 22" version="1.1" xmlns="http://www.w3.org/2000/svg" xmlns:xlink="http://www.w3.org/1999/xlink">
    <!-- Generator: Sketch 53.2 (72643) - https://sketchapp.com -->
    <title>Asset 13</title>
    <desc>Created with Sketch.</desc>
    <g id="responsive-footers" stroke="none" stroke-width="1" fill="none" fill-rule="evenodd">
        <g id="Desktop-1440px" transform="translate(-1208.000000, -137.000000)">
            <g id="Group-4" transform="translate(156.000000, 137.000000)">
                <g id="Group-2">
                    <g id="Asset-13" transform="translate(1052.000000, 0.000000)">
                        <path d="M18.54,10.88 L18.54,8.22 C18.54,8.22 18.54,8.12 18.42,8.22 L17.12,10.9 C17.12,10.9 17.12,11.1 17.12,11.1 L18.34,11.1 C18.34,11.1 18.46,11.1 18.46,10.88 L18.54,10.88 Z M16.54,20.16 C16.1451118,20.8645157 15.2824792,21.1578108 14.54,20.84 C10.5507758,18.9624312 6.96954746,16.3189818 4,13.06 L7.66,13.06 L8,11.74 L5.48,11.74 C5.25105884,11.7305569 5.03651175,11.6257535 4.88833299,11.4509786 C4.74015423,11.2762036 4.67186194,11.0474016 4.7,10.82 C4.7,10.82 4.82,10.28 4.84,10.24 L4.84,10.24 L5.18,8.88 L5.18,8.88 C5.34071373,8.24501333 5.92565619,7.81048464 6.58,7.84 L8.92,7.84 L9.24,6.54 L7.62,6.54 L5.62,7.3 L5.82,6.54 L5.48,6.54 C4.99813127,6.51290557 4.51563885,6.58086225 4.06,6.74 C3.7646942,6.86040618 3.54269958,7.11200009 3.46,7.42 L2.52,11.26 C1.70101382,10.2158027 0.939872375,9.12750393 0.24,8 C-0.196675327,7.28810544 -0.00390864834,6.35932053 0.68,5.88 C6.05452901,2.20964868 12.3739398,0.167992882 18.88,2.9243101e-15 C19.7265141,-0.012959669 20.4366032,0.635763707 20.5,1.48 C20.6299757,3.16416266 20.6299757,4.85583734 20.5,6.54 L17.06,6.54 L13.76,13.04 L16.16,13.04 L16.56,12.18 C16.5533069,12.1305098 16.5701061,12.0807329 16.6054195,12.0454195 C16.6407329,12.0101061 16.6905098,11.9933069 16.74,12 L18.48,12 L18.48,12.88 L19.26,12.88 C18.5699027,15.353778 17.6038337,17.7421153 16.38,20 L16.54,20.16 Z M12,13.06 L8.14,13.06 L8.46,11.72 L10.96,11.72 C11.82,11.72 12.24,10.98 11.62,10.56 C11,10.14 10.64,9.8 10,9.38 C8.8,8.54 9.36,6.54 11.38,6.54 L15.08,6.54 L14.76,7.84 L12.3,7.84 C12.0372401,7.77975715 11.7703009,7.92252955 11.6745423,8.17452606 C11.5787836,8.42652258 11.6835425,8.71054025 11.92,8.84 L13.5,10 C14.8,11 14,13.04 12,13.06 Z" id="Shape" fill="#C60C30"></path>
                        <path d="M43.36,7.48 C43.1406488,7.47512962 42.9226875,7.51599737 42.72,7.6 C42.547807,7.66648087 42.4008777,7.78542364 42.3,7.94 L42.3,7.94 C42.3065657,7.98643573 42.3065657,8.03356427 42.3,8.08 C42.3075295,8.13976378 42.3075295,8.20023622 42.3,8.26 C42.1405964,8.95697948 42.040241,9.66615789 42,10.38 C41.9644354,10.6588707 41.9644354,10.9411293 42,11.22 C42.0286078,11.4151363 42.1040971,11.6004283 42.22,11.76 L42.22,11.76 C42.336403,11.884628 42.4801884,11.9804849 42.64,12.04 C42.8654782,12.0728266 43.0945218,12.0728266 43.32,12.04 L45.64,12.04 L45.64,13 L42.52,13 L42.1,13 L42.1,13 L41.98,13 L41.98,13 L41.86,13 C41.6388143,12.9194827 41.4351321,12.7972734 41.26,12.64 C41.0792796,12.4521979 40.9306342,12.2359864 40.82,12 C40.6823234,11.8181499 40.5743187,11.615641 40.5,11.4 L40.5,11.4 C40.4924705,11.3402362 40.4924705,11.2797638 40.5,11.22 L40.5,11.02 C40.3775431,10.6901397 40.2903897,10.3482303 40.24,10 C40.2307165,9.49410061 40.2912877,8.9893399 40.42,8.5 C40.5350605,8.10915332 40.7328702,7.74763894 41,7.44 L41,7.44 C41.070149,7.35659601 41.1508223,7.28264548 41.24,7.22 L41.5,7.02 C42.0647252,6.71793951 42.7001402,6.57289914 43.34,6.6 L45.68,6.6 L45.68,7.56 L43.36,7.48 Z M25.36,7.48 C25.1340372,7.47351346 24.9092179,7.51438968 24.7,7.6 C24.527807,7.66648087 24.3808777,7.78542364 24.28,7.94 L24.28,7.94 C24.2734343,7.98643573 24.2734343,8.03356427 24.28,8.08 C24.2724705,8.13976378 24.2724705,8.20023622 24.28,8.26 C24.1163727,8.9555922 24.0225746,9.66577819 24,10.38 C23.9644354,10.6588707 23.9644354,10.9411293 24,11.22 C24.0434019,11.4141333 24.1249848,11.5976948 24.24,11.76 L24.24,11.76 C24.356403,11.884628 24.5001884,11.9804849 24.66,12.04 C24.8852713,12.0755693 25.1147287,12.0755693 25.34,12.04 L27.64,12.04 L27.64,13 L24.54,13 L24.1,13 L24.1,13 L23.98,13 L23.86,13 L23.86,13 C23.6403994,12.9161898 23.4372916,12.7943252 23.26,12.64 L23.26,12.64 C23.0875752,12.4455705 22.9397926,12.2306141 22.82,12 C22.6823234,11.8181499 22.5743187,11.615641 22.5,11.4 L22.5,11.4 C22.4915204,11.3402996 22.4915204,11.2797004 22.5,11.22 L22.5,11.02 C22.3687802,10.6929376 22.2813568,10.3499687 22.24,10 C22.2265955,9.49255216 22.294108,8.98620831 22.44,8.5 C22.548537,8.1106142 22.7395186,7.74911325 23,7.44 L23,7.44 L23.24,7.22 L23.5,7.02 C24.0657403,6.72066396 24.7004077,6.57579422 25.34,6.6 L27.68,6.6 L27.68,7.56 L25.36,7.48 Z M30.2,12.12 L33.8,12.12 L33.8,13.08 L28.24,13.08 L28.24,12 L32,7.48 L28.2,7.48 L28.2,6.52 L33.78,6.52 L33.78,7.54 L30.18,12.12 L30.2,12.12 Z M48,6.66 L48,9.32 L50.16,9.32 L50.16,6.52 L51.74,6.52 L51.74,13.08 L50.16,13.08 L50.16,10.28 L48,10.28 L48,13.08 L46.4,13.08 L46.4,6.52 L48,6.52 L48,6.66 Z M37.46,7.48 C37.2340372,7.47351346 37.0092179,7.51438968 36.8,7.6 C36.627807,7.66648087 36.4808777,7.78542364 36.38,7.94 L36.38,7.94 C36.3734343,7.98643573 36.3734343,8.03356427 36.38,8.08 C36.3724705,8.13976378 36.3724705,8.20023622 36.38,8.26 C36.295731,8.6073419 36.2487982,8.96269027 36.24,9.32 L39.92,9.32 L39.92,10.28 L36,10.28 L36,10.38 C35.9644354,10.6588707 35.9644354,10.9411293 36,11.22 C36.0434019,11.4141333 36.1249848,11.5976948 36.24,11.76 L36.24,11.76 C36.356403,11.884628 36.5001884,11.9804849 36.66,12.04 C36.8852713,12.0755693 37.1147287,12.0755693 37.34,12.04 L39.64,12.04 L39.64,13 L36.6,13 L36.16,13 L36.16,13 L36.04,13 L36.04,13 L35.92,13 C35.7033561,12.9102157 35.5011715,12.788905 35.32,12.64 C35.1475752,12.4455705 34.9997926,12.2306141 34.88,12 C34.7423234,11.8181499 34.6343187,11.615641 34.56,11.4 L34.56,11.4 L34.56,11.22 L34.56,11.02 C34.4372537,10.6902302 34.3500923,10.3482895 34.3,10 C34.2865955,9.49255216 34.354108,8.98620831 34.5,8.5 C34.608537,8.1106142 34.7995186,7.74911325 35.06,7.44 L35.06,7.44 L35.3,7.22 L35.56,7.02 C36.1257403,6.72066396 36.7604077,6.57579422 37.4,6.6 L39.74,6.6 L39.74,7.56 L37.46,7.48 Z" id="Shape" fill="#003478" fill-rule="nonzero"></path>
                        <path d="M54.12,15.38 C53.8940372,15.3735135 53.6692179,15.4143897 53.46,15.5 C53.2863843,15.5740728 53.1397543,15.6997556 53.04,15.86 L53.04,15.86 C53.0296665,15.9060946 53.0296665,15.9539054 53.04,16 C53.032857,16.0530942 53.032857,16.1069058 53.04,16.16 C52.955731,16.5073419 52.9087982,16.8626903 52.9,17.22 L56.58,17.22 L56.58,18.18 L52.7,18.18 L52.7,18.28 C52.6656363,18.5656368 52.6656363,18.8543632 52.7,19.14 C52.7433129,19.3280195 52.8250223,19.5050566 52.94,19.66 L52.94,19.66 C53.0511564,19.790666 53.1966327,19.8876502 53.36,19.94 C53.5851901,19.976589 53.8148099,19.976589 54.04,19.94 L56.34,19.94 L56.34,20.9 L54,20.9 L53.34,20.9 L53.24,20.9 L52.8,20.9 L52.8,20.9 L52.68,20.9 L52.56,20.9 C52.3433561,20.8102157 52.1411715,20.688905 51.96,20.54 L51.96,20.54 C51.7897162,20.4111399 51.6411685,20.25584 51.52,20.08 C51.3865959,19.9026725 51.2788682,19.7074162 51.2,19.5 L51.2,19.5 L51.2,19.32 L51.2,19.12 C51.0987354,18.7487135 51.0515828,18.3647562 51.06,17.98 C51.0480412,17.4791977 51.1155456,16.9796654 51.26,16.5 C51.3640153,16.1028294 51.5553289,15.7338675 51.82,15.42 L51.82,15.42 L52,15.04 L52.26,14.86 C52.790847,14.5619483 53.3912836,14.4101138 54,14.42 L56.34,14.42 L56.34,15.38 L54.12,15.38 Z M24.12,16.18 L23.36,18.18 L24.9,18.18 L24.12,16.18 L24.12,16.18 Z M23.46,14.42 L24.96,14.42 L24.96,14.42 L27.66,20.72 L27.66,20.92 L26,20.92 L26,20.82 L25.32,19.06 L22.98,19.06 L22.32,20.82 L22.32,20.92 L20.6,20.92 L20.6,20.72 L23.26,14.42 L23.26,14.42 L23.46,14.42 Z M29.46,21 L28,21 L28,14.42 L29.64,14.42 L29.64,21 L29.46,21 Z M39.68,21 L38.9,21 L38.8,21 C38.5928897,20.9782296 38.3904502,20.9242458 38.2,20.84 L38.08,20.84 C37.7895618,20.6832579 37.5369773,20.4648064 37.34,20.2 C37.2011921,20.0293453 37.0990656,19.8319007 37.04,19.62 C36.9914044,19.4499531 36.9579408,19.2759421 36.94,19.1 C36.9282441,18.8734858 36.9282441,18.6465142 36.94,18.42 L36.94,14.42 L38.54,14.42 L38.54,19.08 C38.509885,19.4713144 38.7485163,19.8333757 39.12,19.96 C39.4094675,20.019022 39.7063716,20.0325177 40,20 L41.7,20 L41.7,20.96 L39.68,21 Z M43.48,21 L42,21 L42,14.42 L43.66,14.42 L43.66,21 L43.48,21 Z M44.62,14.42 L46.36,14.42 L46.36,14.42 L48.68,18.42 L48.68,14.42 L48.68,14.42 L50.3,14.42 L50.3,21 L48.56,21 L48.56,21 L46.12,16.6 L46.12,20.86 L46.12,21 L44.5,21 L44.5,14.42 L44.62,14.42 Z M59.7,15.44 C59.04,15.44 58.5,15.74 58.52,16.4 C58.5122897,16.6341463 58.6076007,16.8599057 58.7807746,17.0176864 C58.9539485,17.1754671 59.1875802,17.2494111 59.42,17.22 L61,17.22 C61.3728488,17.2143957 61.7441977,17.2684101 62.1,17.38 C62.2995824,17.4397594 62.4838211,17.5421142 62.64,17.68 L62.64,17.68 C63.0159467,18.000781 63.2040969,18.4899715 63.14,18.98 L63.14,18.98 C63.1707847,19.5459627 62.9599828,20.0984091 62.56,20.5 C62.0501511,20.8679664 61.4271557,21.0449537 60.8,21 L57.22,21 L57.22,20 L60.58,20 C61.0856924,20.0471025 61.537353,19.6840027 61.6,19.18 C61.6373348,18.9211215 61.554828,18.6593222 61.3758091,18.4686282 C61.1967902,18.2779342 60.9407183,18.1790735 60.68,18.2 L59.2,18.2 C58.6039269,18.2427523 58.0111502,18.0804444 57.52,17.74 L57.52,17.74 C57.1762515,17.4191387 56.9807582,16.970228 56.98,16.5 C56.9322712,15.9234828 57.136507,15.3545402 57.54,14.94 C58.0560009,14.5690466 58.6863135,14.3919925 59.32,14.44 L62.92,14.44 L62.92,15.46 L59.7,15.44 Z M33.56,15.44 L32.08,15.44 L32.08,17.56 L33.56,17.56 C33.8706064,17.5996899 34.1834066,17.5051224 34.42,17.3 L34.42,17.3 L34.42,17.3 L34.42,17.3 C34.5090171,17.0847694 34.5499707,16.8526991 34.54,16.62 C34.5678453,16.3256022 34.4975262,16.0302617 34.34,15.78 C34.2586587,15.6933014 34.154777,15.6309724 34.04,15.6 C33.8548224,15.5666559 33.6651776,15.5666559 33.48,15.6 L33.56,15.44 Z M30.62,14.48 L34,14.48 C34.3438883,14.4731581 34.6870891,14.5135346 35.02,14.6 C35.2905739,14.6734013 35.5426933,14.802868 35.76,14.98 L35.76,14.98 L35.92,15.14 L36.04,15.3 C36.2532959,15.6701394 36.3573156,16.0931529 36.34,16.52 C36.3720045,16.7455369 36.3720045,16.9744631 36.34,17.2 C36.295176,17.4094959 36.2065725,17.60715 36.08,17.78 L36.08,17.78 L36.08,17.9 L36.08,17.9 L35.72,18 L35.72,18 C35.5443148,18.1624237 35.331404,18.2791812 35.1,18.34 L36.58,20.84 L36.7,21.04 L34.9,21.04 L34.9,21.04 L33.54,18.64 L32.2,18.64 L32.2,21 L30.6,21 L30.6,14.42 L30.62,14.48 Z" id="Shape" fill="#003478" fill-rule="nonzero"></path>
                    </g>
                </g>
            </g>
        </g>
    </g>
</svg>